<svg width="72" height="86" viewBox="0 0 72 86" fill="none" xmlns="http://www.w3.org/2000/svg">
<rect width="72" height="86" fill="white"/>
<path d="M31.3588 29.1321C31.3492 28.5371 30.8112 28.0268 30.2178 28.0359C29.7283 28.0435 29.2877 28.4032 29.1534 28.8628H29.129H29.1032H29.0775H29.0518H29.0261H29.0004H28.9747H28.949H28.9232H28.8975H28.8718H28.8461H28.8204H28.7946H28.7689H28.7432H28.7175H28.6918H28.666H28.6403H28.6146H28.5889H28.5632H28.5374H28.5117H28.486H28.4603H28.4345H28.4088H28.3831H28.3573H28.3316H28.3059H28.2802H28.2544H28.2287H28.203H28.1772H28.1515H28.1258H28.1H28.0743H28.0486H28.0228H27.9971H27.9714H27.9456H27.9199H27.8942H27.8684H27.8427H27.8169H27.7912H27.7655H27.7397H27.714H27.6883H27.6625H27.6368H27.611H27.5853H27.5596H27.5338H27.5081H27.4823H27.4566H27.4308H27.4051H27.3794H27.3536H27.3279H27.3021H27.2764H27.2506H27.2249H27.1991H27.1734H27.1476H27.1219H27.0961H27.0704H27.0446H27.0189H26.9931H26.9674H26.9416H26.9159H26.8901H26.8644H26.8386H26.8129H26.7871H26.7614H26.7356H26.7099H26.6841H26.6584H26.6326H26.6069H26.5811H26.5554H26.5296H26.5039H26.4781H26.4523H26.4266H26.4008H26.3751H26.3493H26.3236H26.2978H26.272H26.2463H26.2205H26.1948H26.169H26.1433H26.1175H26.0917H26.066H26.0402H26.0145H25.9887H25.9629H25.9372H25.9114H25.8857H25.8599H25.8341H25.8084H25.7826H25.7568H25.7311H25.7053H25.6796H25.6538H25.628H25.6023H25.5765H25.5507H25.525H25.4992H25.4735H25.4477H25.4219H25.3962H25.3704H25.3446H25.3189H25.2931H25.2673H25.2416H25.2158H25.19H25.1643H25.1385H25.1127H25.087H25.0612H25.0354H25.0097H24.9839H24.9581H24.9324H24.9066H24.8808H24.8551H24.8293H24.8035H24.7778H24.752H24.7262H24.7005H24.6747H24.6489H24.6232H24.5974H24.5716H24.5459H24.5201H24.4943H24.4686H24.4428H24.417H24.3913H24.3655H24.3397H24.314H24.2882H24.2624H24.2366H24.2109H24.1851H24.1593H24.1336H24.1078H24.082H24.0563H24.0305H24.0047H23.979H23.9532H23.9274H23.9017H23.8759H23.8501H23.8243H23.7986H23.7728H23.747H23.7213H23.6955H23.6697H23.644H23.6182H23.5924H23.5667H23.5409H23.5151H23.4894H23.4636H23.4378H23.4121H23.3863H23.3605H23.3348H23.309H23.2832H23.2574H23.2317H23.2059H23.1801H23.1544H23.1286H23.1028H23.0771H23.0513H23.0255H22.9998H22.974H22.9482H22.9225H22.8967H22.8709H22.8452H22.8194H22.7936H22.7679H22.7421H22.7164H22.6906H22.6648H22.6391H22.6133H22.5875H22.5618H22.536H22.5102H22.4845H22.4587H22.4329H22.4072H22.3814H22.3556H22.3299H22.3041H22.2784H22.2526H22.2268H22.2011H22.1753H22.1496H22.1238H22.098H22.0723H22.0465H22.0207H21.995H21.9692H21.9435H21.9177H21.8919H21.8662H21.8404H21.8147H21.7889H21.7632H21.7374H21.7116H21.6859H21.6601H21.6344H21.6086H21.5828H21.5571H21.5313H21.5056H21.4798H21.4541H21.4283H21.4026H21.3768H21.351H21.3253H21.2995H21.2738H21.248H21.2223H21.1965H21.1708H21.145H21.1193H21.0935H21.0678H21.042H21.0163H20.9905H20.9648H20.939H20.9133H20.8875H20.8618H20.836H20.8103H20.7845H20.7588H20.733H20.7073H20.6815H20.6558H20.6301H20.6043H20.5786H20.5528H20.5271H20.5013H20.4756H20.4498H20.4241H20.3984H20.3726H20.3469H20.3211H20.2954H20.2697H20.2439H20.2182H20.1924H20.1667H20.141H20.1152H20.0895H20.0638H20.038H20.0123H19.9865H19.9608H19.9351H19.9093H19.8836H19.8579H19.8321H19.8064H19.7807H19.755H19.7292H19.7035H19.6778H19.652H19.6263H19.6006H19.5748H19.5491H19.5234H19.4977H19.4719H19.4462H19.4205H19.3948H19.369H19.3433H19.3176H19.2919H19.2661H19.2404H19.2147H19.189H19.1633H19.1375H19.1118H19.0861H19.0604H19.0347H19.009H18.9832H18.9575H18.9318H18.9061H18.8804H18.8547H18.829H18.8032H18.7775H18.7518H18.7261H18.7004H18.6747H18.649H18.6233H18.5976H18.5719H18.5461H18.5204H18.4947H18.469H18.4433H18.4176H18.3919H18.3662H18.3405H18.3148H18.2891H18.2634H18.2377H18.212H18.1863H18.1606H18.1349H18.1092H18.0835H18.0578H18.0321H18.0064H17.9808H17.9551H17.9294H17.9037H17.878H17.8523H17.8266H17.8009H17.7752H17.7495H17.7239H17.6982H17.6725H17.6468H17.6211H17.5954H17.5698H17.5441H17.5184H17.4927H17.467H17.4413H17.4157H17.39H17.3643H17.3386H17.313H17.2873H17.2616H17.2359H17.2103H17.1846H17.1589H17.1333H17.1076H17.0819H17.0563H17.0306H17.0049H16.9793H16.9536H16.9279H16.9023H16.8766H16.8509H16.8253H16.7996H16.774H16.7483H16.7226H16.697H16.6713H16.6457H16.62H16.5944H16.5687H16.5431H16.5353V16.4395H25.2922C25.8903 16.4466 26.4294 15.9256 26.4294 15.3256C26.4294 14.7256 25.8903 14.2046 25.2922 14.2116H16.2353C15.6226 14.2116 14.9313 14.425 14.5682 14.9841C14.2636 15.4533 14.2792 15.877 14.2865 16.0755C14.2874 16.1006 14.2882 16.122 14.2882 16.1395V16.165V16.1904V16.2158V16.2413V16.2667V16.2922V16.3176V16.343V16.3685V16.3939V16.4193V16.4448V16.4702V16.4956V16.5211V16.5465V16.5719V16.5974V16.6228V16.6483V16.6737V16.6991V16.7246V16.75V16.7754V16.8009V16.8263V16.8517V16.8772V16.9026V16.9281V16.9535V16.9789V17.0044V17.0298V17.0552V17.0807V17.1061V17.1315V17.157V17.1824V17.2078V17.2333V17.2587V17.2842V17.3096V17.335V17.3605V17.3859V17.4113V17.4368V17.4622V17.4876V17.5131V17.5385V17.564V17.5894V17.6148V17.6403V17.6657V17.6911V17.7166V17.742V17.7674V17.7929V17.8183V17.8438V17.8692V17.8946V17.9201V17.9455V17.9709V17.9964V18.0218V18.0472V18.0727V18.0981V18.1235V18.149V18.1744V18.1999V18.2253V18.2507V18.2762V18.3016V18.327V18.3525V18.3779V18.4033V18.4288V18.4542V18.4797V18.5051V18.5305V18.556V18.5814V18.6068V18.6323V18.6577V18.6831V18.7086V18.734V18.7594V18.7849V18.8103V18.8358V18.8612V18.8866V18.9121V18.9375V18.9629V18.9884V19.0138V19.0392V19.0647V19.0901V19.1156V19.141V19.1664V19.1919V19.2173V19.2427V19.2682V19.2936V19.319V19.3445V19.3699V19.3953V19.4208V19.4462V19.4717V19.4971V19.5225V19.548V19.5734V19.5988V19.6243V19.6497V19.6751V19.7006V19.726V19.7515V19.7769V19.8023V19.8278V19.8532V19.8786V19.9041V19.9295V19.9549V19.9804V20.0058V20.0312V20.0567V20.0821V20.1076V20.133V20.1584V20.1839V20.2093V20.2347V20.2602V20.2856V20.311V20.3365V20.3619V20.3874V20.4128V20.4382V20.4637V20.4891V20.5145V20.54V20.5654V20.5908V20.6163V20.6417V20.6672V20.6926V20.718V20.7435V20.7689V20.7943V20.8198V20.8452V20.8706V20.8961V20.9215V20.9469V20.9724V20.9978V21.0233V21.0487V21.0741V21.0996V21.125V21.1504V21.1759V21.2013V21.2267V21.2522V21.2776V21.3031V21.3285V21.3539V21.3794V21.4048V21.4302V21.4557V21.4811V21.5065V21.532V21.5574V21.5828V21.6083V21.6337V21.6592V21.6846V21.71V21.7355V21.7609V21.7863V21.8118V21.8372V21.8626V21.8881V21.9135V21.939V21.9644V21.9898V22.0153V22.0407V22.0661V22.0916V22.117V22.1424V22.1679V22.1933V22.2187V22.2442V22.2696V22.2951V22.3205V22.3459V22.3714V22.3968V22.4222V22.4477V22.4731V22.4985V22.524V22.5494V22.5749V22.6003V22.6257V22.6512V22.6766V22.702V22.7275V22.7529V22.7783V22.8038V22.8292V22.8547V22.8801V22.9055V22.931V22.9564V22.9818V23.0073V23.0327V23.0581V23.0836V23.109V23.1344V23.1599V23.1853V23.2108V23.2362V23.2616V23.2871V23.3125V23.3379V23.3634V23.3888V23.4142V23.4397V23.4651V23.4906V23.516V23.5414V23.5669V23.5923V23.6177V23.6432V23.6686V23.694V23.7195V23.7449V23.7703V23.7958V23.8212V23.8467V23.8721V23.8975V23.923V23.9484V23.9738V23.9993V24.0247V24.0501V24.0756V24.101V24.1265V24.1519V24.1773V24.2028V24.2282V24.2536V24.2791V24.3045V24.3299V24.3554V24.3808V24.4062V24.4317V24.4571V24.4826V24.508V24.5334V24.5589V24.5843V24.6097V24.6352V24.6606V24.686V24.7115V24.7369V24.7624V24.7878V24.8132V24.8387V24.8641V24.8895V24.915V24.9404V24.9658V24.9913V25.0167V25.0422V25.0676V25.093V25.1185V25.1439V25.1693V25.1948V25.2202V25.2456V25.2711V25.2965V25.3219V25.3474V25.3728V25.3983V25.4237V25.4491V25.4746V25.5V25.5254V25.5509V25.5763V25.6017V25.6272V25.6526V25.6781V25.7035V25.7289V25.7544V25.7798V25.8052V25.8307V25.8561V25.8815V25.907V25.9324V25.9578V25.9833V26.0087V26.0342V26.0596V26.085V26.1105V26.1359V26.1613V26.1868V26.2122V26.2376V26.2631V26.2885V26.314V26.3394V26.3648V26.3903V26.4157V26.4411V26.4666V26.492V26.5174V26.5429V26.5683V26.5938V26.6192V26.6446V26.6701V26.6955V26.7209V26.7464V26.7718V26.7972V26.8227V26.8481V26.8735V26.899V26.9244V26.9499V26.9753V27.0007V27.0262V27.0516V27.077V27.1025V27.1279V27.1533V27.1788V27.2042V27.2297V27.2551V27.2805V27.306V27.3314V27.3568V27.3823V27.4077V27.4331V27.4586V27.484V27.5094V27.5349V27.5603V27.5858V27.6112V27.6366V27.6621V27.6875V27.7129V27.7384V27.7638V27.7892V27.8147V27.8401V27.8656V27.891V27.9164V27.9419V27.9673V27.9927V28.0182V28.0436V28.069V28.0945V28.1199V28.1453V28.1708V28.1962V28.2217V28.2471V28.2725V28.298V28.3234V28.3488V28.3743V28.3997V28.4251V28.4506V28.476V28.5015V28.5269V28.5523V28.5778V28.6032V28.6286V28.6541V28.6795V28.7049V28.7304V28.7558V28.7812V28.8067V28.8321V28.8576V28.883V28.9084V28.9339V28.9593V28.9847V29.0102V29.0356V29.061V29.0865V29.1119V29.1374V29.1586C14.2776 29.5458 14.3546 29.9286 14.5661 30.264C14.7899 30.6187 15.126 30.8393 15.4104 30.9448C15.667 31.04 15.8986 31.0867 16.0741 31.0906L16.0741 31.0907L16.082 31.0907C18.9851 31.0804 21.9872 31.0838 24.974 31.0873C26.4609 31.089 27.9441 31.0907 29.4093 31.0907M31.3588 29.1321C31.3588 29.1323 31.3588 29.1325 31.3588 29.1327L31.0588 29.1374L31.3588 29.1315C31.3588 29.1317 31.3588 29.1319 31.3588 29.1321ZM31.3588 29.1321C31.3674 29.5756 31.3613 30.2128 30.8185 30.6861C30.3286 31.1133 29.8245 31.1008 29.4843 31.0924C29.4583 31.0917 29.4333 31.0911 29.4093 31.0907M29.4093 31.0907C29.4101 31.0907 29.4109 31.0907 29.4118 31.0907V30.7908L29.4069 31.0907C29.4077 31.0907 29.4085 31.0907 29.4093 31.0907ZM30.7505 51.1247C31.0902 50.8685 31.2471 50.5039 31.3015 50.2318C31.3517 49.981 31.3588 49.7635 31.3588 49.5116V36.4884C31.3588 36.2385 31.3519 35.9945 31.3015 35.7427C31.2471 35.4707 31.0903 35.1061 30.7505 34.8499C30.4106 34.5935 30.0795 34.571 29.8911 34.5609C29.7639 34.5541 29.644 34.5565 29.5396 34.5586C29.4937 34.5596 29.4509 34.5605 29.4118 34.5605H16.2868C15.7694 34.5605 15.0654 34.7344 14.6756 35.3009C14.31 35.8323 14.2882 36.384 14.2882 36.8953V49.5116C14.2882 49.7635 14.2953 49.981 14.3455 50.2319C14.4 50.5039 14.5568 50.8685 14.8966 51.1247C15.2238 51.3715 15.5423 51.4276 15.756 51.4391L15.764 51.4395L15.772 51.4395C18.7721 51.4405 21.8204 51.4401 24.8635 51.4398C26.3831 51.4397 27.9014 51.4395 29.4118 51.4395C29.4514 51.4395 29.4945 51.4404 29.5405 51.4413C29.6447 51.4433 29.7637 51.4456 29.8904 51.4391C30.1048 51.4281 30.4234 51.3717 30.7505 51.1247ZM30.7505 51.1247L30.5699 50.8852M30.7505 51.1247C30.7506 51.1246 30.7506 51.1246 30.7506 51.1246L30.5699 50.8852M30.5699 50.8852C30.3042 51.0858 30.0492 51.1306 29.875 51.1395C29.7587 51.1455 29.6596 51.1435 29.5609 51.1415C29.5118 51.1405 29.4627 51.1395 29.4118 51.1395C27.9013 51.1395 26.383 51.1397 24.8634 51.1398C21.8203 51.1401 18.7721 51.1405 15.7721 51.1395C15.5978 51.1302 15.3429 51.0856 15.0772 50.8852C14.8115 50.6848 14.684 50.3943 14.6397 50.173C14.5954 49.9516 14.5882 49.7578 14.5882 49.5116V36.8953C14.5882 36.3886 14.6136 35.9204 14.9228 35.4709C15.232 35.0215 15.8151 34.8605 16.2868 34.8605H29.4118C29.4627 34.8605 29.5117 34.8594 29.5609 34.8584C29.6596 34.8563 29.7587 34.8542 29.875 34.8605C30.0492 34.8698 30.3041 34.889 30.5699 35.0894C30.8356 35.2898 30.963 35.5803 31.0074 35.8016C31.0517 36.0229 31.0588 36.2422 31.0588 36.4884V49.5116C31.0588 49.7578 31.0517 49.9516 31.0074 50.173C30.963 50.3943 30.8355 50.6848 30.5699 50.8852ZM22.5943 20.0553L22.5939 20.0551C22.0843 19.7436 21.355 19.9121 21.0379 20.419C20.7196 20.9279 20.8943 21.653 21.4057 21.9658C22.3045 22.5168 23.0788 23.0611 23.81 23.575C23.8889 23.6305 23.9673 23.6856 24.0453 23.7404C24.8432 24.3002 25.6021 24.8221 26.4137 25.2559L26.4143 25.2562C26.8731 25.5001 27.4842 25.3807 27.815 24.9798C27.8155 24.9793 27.8159 24.9788 27.8163 24.9783L36.0458 15.2178C36.3839 14.8423 36.3272 14.3296 36.13 13.9734C35.9324 13.6164 35.528 13.2963 35.0299 13.3754C34.7455 13.4139 34.4799 13.5635 34.3009 13.7875L26.7232 22.7949C26.2319 22.4894 25.7311 22.1434 25.1714 21.7567C25.1252 21.7248 25.0787 21.6926 25.0316 21.6602C24.3329 21.1777 23.5462 20.6389 22.5943 20.0553ZM29.4118 29.1404C29.4116 29.1479 29.4116 29.1553 29.4118 29.1628H29.4117H29.1117L29.4118 29.1404ZM49.1775 23.1543L49.181 23.1543L55.7653 23.0973C56.2158 23.0876 56.5235 22.919 56.7021 22.6497C56.8648 22.4043 56.8869 22.1224 56.8882 21.9448C56.8992 21.5988 56.7957 21.3126 56.5734 21.1095C56.3619 20.916 56.0807 20.8333 55.8055 20.8014L55.7873 20.7992L55.769 20.7994C50.0766 20.8361 43.8275 20.8591 38.472 20.8759C37.8741 20.8691 37.3353 21.39 37.3353 21.9898C37.3353 22.5892 37.8733 23.1098 38.4707 23.1038C38.9603 23.1091 39.4422 23.1155 39.917 23.1218C40.8404 23.134 41.7373 23.1459 42.613 23.149C44.9008 23.1572 47.0474 23.1617 49.1775 23.1543ZM38.3162 41.0721H38.3023L38.2885 41.0734C37.6953 41.1283 37.2148 41.6961 37.2712 42.2907C37.3271 42.8797 37.8958 43.3457 38.4832 43.3H55.7629C56.361 43.307 56.9 42.786 56.9 42.186C56.9 41.5861 56.361 41.0651 55.7629 41.0721H38.3162ZM30.7083 55.3077L30.7082 55.3077C30.2436 54.928 29.7452 54.9093 29.4118 54.9093H16.2353C15.9019 54.9093 15.4034 54.9278 14.9388 55.3077C14.4665 55.6938 14.2882 56.3089 14.2882 56.8372V69.8605C14.2882 70.3937 14.4695 70.9808 14.9388 71.3645C15.3958 71.7382 15.8847 71.7884 16.2353 71.7884H29.4118C29.7622 71.7884 30.2511 71.7386 30.7083 71.3645C31.1776 70.9808 31.3588 70.3937 31.3588 69.8605V56.8372C31.3588 56.3088 31.1806 55.6938 30.7083 55.3077ZM38.3162 61.4209H38.3023L38.2885 61.4222C37.6953 61.4772 37.2148 62.0449 37.2712 62.6395C37.3271 63.2286 37.8959 63.6946 38.4833 63.6488H55.7626C56.3608 63.656 56.9 63.1349 56.9 62.5349C56.9 61.9349 56.361 61.414 55.7629 61.4209H38.3162ZM10.4706 7.7C8.95376 7.7 7.7 8.93417 7.7 10.4419V75.5581C7.7 77.0658 8.95371 78.3 10.4706 78.3H61.5294C63.0463 78.3 64.3 77.0658 64.3 75.5581V10.4419C64.3 8.93417 63.0462 7.7 61.5294 7.7H10.4706ZM10.4706 9.92791H61.5294C61.8375 9.92791 62.0529 10.1458 62.0529 10.4419V75.5581C62.0529 75.8541 61.8375 76.0721 61.5294 76.0721H10.4706C10.1625 76.0721 9.94706 75.8541 9.94706 75.5581V10.4419C9.94706 10.1458 10.1625 9.92791 10.4706 9.92791ZM16.5353 36.7884L29.1118 36.7884V49.2116H16.5353V36.7884ZM16.5353 57.1372H29.1118V69.5605H16.5353V57.1372Z" fill="#E7E8ED" stroke="#E7E8ED" stroke-width="0.6"/>
</svg>
