<svg width="13" height="13" viewBox="0 0 13 13" fill="none" xmlns="http://www.w3.org/2000/svg">
    <path fill-rule="evenodd" clip-rule="evenodd" d="M7.47692 12.9231C7.10769 12.9231 6.73846 12.7846 6.46154 12.5077L0.415385 6.41538C0.138461 6.18462 0 5.81538 0 5.44615V1.43077C0 0.646154 0.646154 0 1.43077 0H5.44615C5.81538 0 6.18461 0.138462 6.46154 0.415385L12.5538 6.50769C13.1077 7.06154 13.1077 7.93846 12.5538 8.53846L8.53846 12.5538C8.21538 12.7846 7.89231 12.9231 7.47692 12.9231ZM3.69231 2.76923C3.18462 2.76923 2.76923 3.18462 2.76923 3.69231C2.76923 4.2 3.18462 4.61539 3.69231 4.61539C4.2 4.61539 4.61538 4.2 4.61538 3.69231C4.61538 3.18462 4.2 2.76923 3.69231 2.76923Z" fill="#6C6D6F"/>
</svg>
